HIERARCHY
ROOT Hips
{
	OFFSET 0.000000 0.000000 0.000000 
	CHANNELS 6 Xposition Yposition Zposition Yrotation Zrotation Xrotation 
	JOINT Lumbar
	{
		OFFSET 0.000000 0.000000 0.000000 
		CHANNELS 3 Zrotation Xrotation Yrotation
		JOINT Neck
		{
			OFFSET 0.000000 0.445665 0.000000 
			CHANNELS 3 Zrotation Xrotation Yrotation
			End Site
			{
				OFFSET 0.000000 0.227535 0.000000 
			}
		}
		JOINT RightShoulder
		{
			OFFSET 0.019635 0.377685 0.194865 
			CHANNELS 3 Zrotation Xrotation Yrotation
			JOINT RightElbow
			{
				OFFSET 0.000000 -0.243375 0.000000 
				CHANNELS 2 Zrotation Yrotation
				JOINT RightWrist
				{
					OFFSET 0.000000 -0.264825 0.000000 
					CHANNELS 2 Zrotation Xrotation
					End Site
					{
						OFFSET 0.006600 -0.176220 0.000990 
					}
				}
			}
		}
		JOINT LeftShoulder
		{
			OFFSET 0.019635 0.377685 -0.194865 
			CHANNELS 3 Zrotation Xrotation Yrotation
			JOINT LeftElbow
			{
				OFFSET 0.000000 -0.243375 0.000000 
				CHANNELS 2 Zrotation Yrotation
				JOINT LeftWrist
				{
					OFFSET 0.000000 -0.264825 0.000000 
					CHANNELS 2 Zrotation Xrotation
					End Site
					{
						OFFSET 0.006600 -0.176220 -0.000990 
					}
				}
			}
		}
	}
	JOINT RightHip
	{
		OFFSET 0.052140 -0.069960 0.075570 
		CHANNELS 3 Zrotation Xrotation Yrotation
		JOINT RightKnee
		{
			OFFSET 0.000000 -0.402270 0.000000 
			CHANNELS 1 Zrotation
			JOINT RightAnkle
			{
				OFFSET 0.000000 -0.404085 0.000000 
				CHANNELS 3 Zrotation Xrotation Yrotation
				End Site
				{
					OFFSET 0.204105 -0.089430 0.008415 
				}
			}
		}
	}
	JOINT LeftHip
	{
		OFFSET 0.052140 -0.069960 -0.075570 
		CHANNELS 3 Zrotation Xrotation Yrotation
		JOINT LeftKnee
		{
			OFFSET 0.000000 -0.402270 0.000000 
			CHANNELS 1 Zrotation
			JOINT LeftAnkle
			{
				OFFSET 0.000000 -0.404085 0.000000 
				CHANNELS 3 Zrotation Xrotation Yrotation
				End Site
				{
					OFFSET 0.204105 -0.089430 -0.008415 
				}
			}
		}
	}
}
MOTION
Frames: 33
Frame Time: 0.02
0.38818 0.73169 -0.08292 180.62203 0 -3.94734 -47.05664 -1.39378 43.22488 51.91493 -27.38955 -29.50042 -18.27325 2.29124 49.38451 62.67664 81.22381 -6.40756 -2.76764 -16.3957 -16.2147 -55.6342 67.41158 -105.93777 17.92351 -5.07256 60.38056 12.69638 -6.08276 -71.81162 -2.04214 0.19794 8.2807 71.8687 -12.48251 14.30447 -106.45156 -9.49733 1.2934 -2.3955
0.3884 0.73171 -0.08287 180.54186 0 -3.9663 -47.02345 -1.40699 43.2047 51.90384 -27.29109 -29.50889 -18.22105 2.26855 49.38775 62.59253 81.34555 -6.35595 -2.79256 -16.30086 -16.2147 -55.63419 67.33878 -106.03775 17.78313 -5.0884 60.37243 12.69982 -6.14987 -71.76316 -2.0887 0.19951 8.33146 71.8806 -12.47993 14.27412 -106.67634 -9.35284 1.31776 -2.08537
0.38853 0.7316 -0.08273 180.48786 0 -3.97068 -46.97546 -1.39875 43.08862 51.88495 -27.15923 -29.51575 -18.16534 2.25075 49.38251 62.46977 81.50747 -6.29205 -2.82311 -16.20135 -16.2147 -55.63418 67.24128 -106.0549 17.60932 -5.13648 60.38583 12.70254 -6.15757 -71.76942 -2.10829 0.20669 8.38415 71.8753 -12.47928 14.28091 -106.88687 -9.23999 1.34102 -1.82585
0.38871 0.73156 -0.08263 180.42167 0 -3.98253 -46.93586 -1.40232 43.04021 51.87261 -27.05526 -29.55909 -18.11584 2.21623 49.38905 62.37559 81.63012 -6.22927 -2.83702 -16.09888 -16.21469 -55.63417 67.16246 -106.10372 17.44321 -5.17123 60.38813 12.70572 -6.19397 -71.74846 -2.13977 0.21159 8.43792 71.8784 -12.47768 14.26797 -107.09827 -9.11727 1.36431 -1.54769
0.38888 0.7315 -0.08251 180.35375 0 -3.99121 -46.88971 -1.39973 42.89537 51.84767 -26.89838 -29.45681 -18.04587 2.23993 49.36351 62.23707 81.83814 -6.18408 -2.90768 -16.01595 -16.21469 -55.63416 67.05521 -106.17974 17.30877 -5.19939 60.39493 12.70843 -6.22655 -71.73446 -2.17407 0.21536 8.48469 71.87988 -12.47623 14.26594 -107.3348 -8.9747 1.39011 -1.24398
0.38903 0.73143 -0.08242 180.29741 0 -4.00339 -46.85326 -1.40279 42.92557 51.84725 -26.84351 -29.65212 -18.01896 2.14603 49.40147 62.17987 81.88156 -6.10071 -2.86461 -15.8936 -16.21469 -55.63416 66.99799 -106.17907 17.10104 -5.24901 60.39807 12.71193 -6.25155 -71.72063 -2.19569 0.22279 8.54606 71.88014 -12.47501 14.24977 -107.51549 -8.88045 1.40999 -1.01058
0.38919 0.73133 -0.08252 180.25856 0 -4.02277 -46.84993 -1.4406 43.47501 51.91418 -27.07706 -30.71079 -18.1001 1.70908 49.62632 62.36892 81.43068 -5.90365 -2.47998 -15.64224 -16.21469 -55.63416 67.11141 -105.98182 16.69224 -5.35322 60.38334 12.71753 -6.27204 -71.6871 -2.18768 0.23927 8.64671 71.88347 -12.47376 14.19387 -107.53998 -8.92299 1.41657 -0.92877
0.38932 0.73122 -0.08266 180.23202 0 -4.04726 -46.85613 -1.48219 44.20086 52.00621 -27.41379 -32.06119 -18.2263 1.15682 49.91351 62.63837 80.81829 -5.67057 -1.98542 -15.35477 -16.21469 -55.63417 67.27103 -105.71084 16.21265 -5.47717 60.36468 12.72397 -6.28645 -71.65324 -2.16789 0.25918 8.76188 71.88575 -12.47273 14.1213 -107.50946 -9.0117 1.41677 -0.92117
0.38944 0.73111 -0.08277 180.20579 0 -4.07312 -46.85639 -1.51264 44.83738 52.08848 -27.70507 -33.2506 -18.34023 0.66896 50.16587 62.86326 80.29976 -5.46163 -1.5586 -15.09853 -16.21469 -55.63418 67.39199 -105.47662 15.76911 -5.59061 60.34967 12.73017 -6.30152 -71.62458 -2.15401 0.27734 8.8706 71.88679 -12.47177 14.05089 -107.50755 -9.07168 1.41788 -0.90143
0.38965 0.73099 -0.08295 180.15658 0 -4.08254 -46.86374 -1.58168 45.50992 52.16445 -27.99229 -34.55943 -18.42171 0.13128 50.4454 63.12209 79.69685 -5.22012 -1.05771 -14.78195 -16.2147 -55.63419 67.58649 -105.22588 15.3055 -5.71305 60.32788 12.73576 -6.32215 -71.57732 -2.13668 0.29655 8.97888 71.89403 -12.47019 14.00393 -107.49022 -9.16359 1.4269 -0.7967
0.38966 0.7309 -0.08297 180.15646 0 -4.12806 -46.85777 -1.57209 46.14979 52.25845 -28.30895 -35.68947 -18.5786 -0.33093 50.68321 63.32807 79.23005 -5.0372 -0.68392 -14.57955 -16.2147 -55.63419 67.63933 -104.99303 14.87052 -5.81925 60.31857 12.74282 -6.33215 -71.56693 -2.12431 0.31425 9.09135 71.88892 -12.46989 13.90453 -107.49178 -9.20189 1.41853 -0.8804
0.38908 0.73086 -0.08256 180.30043 0 -4.26836 -46.82097 -1.33965 46.66251 52.40612 -28.71502 -36.24828 -18.95748 -0.54876 50.79071 63.38239 79.18529 -5.03227 -0.6967 -14.72761 -16.2147 -55.63419 67.28797 -104.82879 14.50409 -5.89118 60.34839 12.75379 -6.30058 -71.66766 -2.12659 0.32738 9.21307 71.84524 -12.47332 13.65688 -107.56203 -9.06073 1.35865 -1.514
0.3883 0.73084 -0.08199 180.49101 0 -4.44564 -46.76865 -1.02903 47.13515 52.56932 -29.14061 -36.6179 -19.40592 -0.68788 50.85394 63.37746 79.2818 -5.08628 -0.83969 -14.9874 -16.2147 -55.63419 66.79299 -104.68533 14.17391 -5.9434 60.3901 12.76619 -6.2616 -71.80354 -2.13477 0.33875 9.33825 71.79026 -12.47797 13.35811 -107.65288 -8.86757 1.28245 -2.32538
0.38763 0.73082 -0.08147 180.65265 0 -4.60841 -46.71843 -0.75733 47.6231 52.71873 -29.53616 -37.07857 -19.80646 -0.86849 50.93763 63.39178 79.30882 -5.10843 -0.91711 -15.17823 -16.2147 -55.63419 66.36488 -104.53201 13.84603 -5.99392 60.42387 12.7779 -6.23498 -71.91694 -2.14161 0.35062 9.46108 71.74351 -12.48188 13.08766 -107.73207 -8.71136 1.21708 -3.02396
0.38689 0.73078 -0.08102 180.84781 0 -4.76146 -46.69066 -0.47105 48.13118 52.89704 -30.02663 -37.52936 -20.27797 -1.03002 51.02274 63.44482 79.35183 -5.15046 -1.01704 -15.44271 -16.2147 -55.63419 65.93122 -104.37776 13.43795 -6.0887 60.46832 12.78981 -6.16917 -72.05769 -2.1423 0.36389 9.5878 71.6832 -12.48659 12.79571 -107.81818 -8.50081 1.13713 -3.86081
0.38624 0.73078 -0.08039 180.98366 0 -4.94371 -46.61078 -0.197 48.58332 53.01903 -30.3202 -37.9503 -20.61677 -1.20979 51.09269 63.39768 79.39809 -5.1659 -1.10328 -15.58312 -16.2147 -55.63419 65.4749 -104.23144 13.20452 -6.08817 60.49329 12.80162 -6.18453 -72.14998 -2.15744 0.37375 9.70692 71.64903 -12.4899 12.53596 -107.89654 -8.39014 1.08366 -4.4503
0.38592 0.73085 -0.0793 180.94846 0 -5.1951 -46.40409 0.02864 48.90487 52.97711 -30.08357 -38.34561 -20.5782 -1.46977 51.13867 63.12566 79.41117 -5.09081 -1.11258 -15.33359 -16.2147 -55.63419 64.98831 -104.10158 13.46233 -5.81338 60.46265 12.81296 -6.4142 -72.09857 -2.21015 0.37484 9.80506 71.68477 -12.48919 12.38369 -107.93911 -8.57072 1.10807 -4.31962
0.38569 0.73095 -0.07805 180.85167 0 -5.47481 -46.14296 0.23883 49.16534 52.87873 -29.64248 -38.71225 -20.4019 -1.74827 51.16926 62.74737 79.42438 -4.98767 -1.10514 -14.95914 -16.2147 -55.63419 64.48515 -103.97937 13.89213 -5.44615 60.41197 12.82412 -6.72712 -71.9975 -2.27725 0.37249 9.89508 71.74788 -12.48701 12.26484 -107.97469 -8.85284 1.15952 -3.93358
0.3854 0.73104 -0.0769 180.77965 0 -5.74342 -45.898 0.45273 49.44698 52.80906 -29.28464 -39.08586 -20.28495 -2.01075 51.20199 62.39311 79.44391 -4.89923 -1.11121 -14.65535 -16.2147 -55.63419 63.99002 -103.85437 14.23124 -5.1317 60.36958 12.83529 -7.01075 -71.91996 -2.3386 0.37153 9.98834 71.80211 -12.4854 12.12645 -108.02054 -9.08648 1.19823 -3.65828
0.3852 0.73115 -0.07564 180.72066 0 -6.00678 -45.68872 0.68185 49.76596 52.72697 -28.97532 -39.48575 -20.1858 -2.30262 51.25384 62.13987 79.44331 -4.80435 -1.09843 -14.29728 -16.2147 -55.63419 63.48385 -103.72744 14.62257 -4.77144 60.33046 12.84688 -7.26175 -71.83932 -2.39751 0.37124 10.08415 71.84204 -12.48421 12.00346 -108.03921 -9.32829 1.23857 -3.40643
0.38484 0.73121 -0.07457 180.62208 0 -6.28614 -45.39236 0.87646 49.97961 52.65722 -28.50741 -39.81761 -20.0139 -2.53872 51.26261 61.65101 79.48041 -4.71574 -1.11727 -14.02054 -16.2147 -55.63419 63.00358 -103.60572 14.94787 -4.48444 60.28038 12.85745 -7.59595 -71.75322 -2.464 0.36878 10.17202 71.91704 -12.48183 11.85844 -108.10995 -9.57776 1.28179 -3.04934
0.38397 0.73112 -0.07415 180.4045 0 -6.61281 -44.86876 0.96234 50.02785 52.6333 -27.72094 -40.04163 -19.69225 -2.61739 51.15791 60.54613 79.64327 -4.64749 -1.24449 -14.00331 -16.21471 -55.6342 62.55774 -103.49908 15.02753 -4.42617 60.19822 12.86584 -8.18025 -71.661 -2.55552 0.36082 10.24555 72.09446 -12.47601 11.63211 -108.34898 -9.82475 1.32958 -2.40537
0.38296 0.73098 -0.07392 180.15309 0 -6.95267 -44.25923 1.01636 49.94811 52.62308 -26.7657 -40.1829 -19.29888 -2.64045 51.0104 59.20827 79.84022 -4.58616 -1.40067 -14.0705 -16.21469 -55.63417 62.14744 -103.39644 15.03778 -4.44404 60.10688 12.87311 -8.83855 -71.56528 -2.65303 0.35084 10.31039 72.30437 -12.46913 11.38477 -108.63662 -10.07601 1.37885 -1.67353
0.38208 0.73087 -0.07355 179.93382 0 -7.27958 -43.68956 1.0965 49.85932 52.6091 -25.84618 -40.31835 -18.9261 -2.68739 50.88142 57.96939 80.0055 -4.52487 -1.53136 -14.09608 -16.21472 -55.63421 61.74798 -103.29071 15.09456 -4.42483 60.02411 12.88049 -9.43541 -71.47327 -2.74241 0.34206 10.3754 72.49095 -12.46306 11.15569 -108.88654 -10.32476 1.42533 -1.0206
0.38092 0.73073 -0.07339 179.64375 0 -7.63639 -43.11568 1.12906 50.06708 52.58673 -25.10556 -40.64653 -18.59779 -2.73678 50.75533 56.74847 80.23549 -4.45238 -1.71207 -14.13257 -16.2147 -55.63419 61.23189 -103.19232 15.09738 -4.41344 59.92218 12.8895 -10.14966 -71.37119 -2.85391 0.33206 10.45572 72.71315 -12.45558 10.89193 -109.20087 -10.5793 1.4815 -0.19774
0.38031 0.73063 -0.07284 179.49128 0 -7.93428 -42.52945 1.25076 49.60884 52.58081 -23.93857 -40.54085 -18.16344 -2.77267 50.61386 55.4455 80.34341 -4.40122 -1.79759 -14.16613 -16.21465 -55.6341 60.96992 -103.07735 15.18975 -4.40429 59.85813 12.8949 -10.63954 -71.28917 -2.92211 0.32407 10.50267 72.87036 -12.45077 10.69375 -109.39434 -10.82163 1.51774 0.29304
0.38125 0.73064 -0.07105 179.74996 0 -8.0609 -41.94259 1.64868 47.51416 52.66098 -21.78508 -39.3782 -17.43892 -2.74264 50.43575 53.89606 80.06524 -4.44237 -1.5973 -14.18695 -16.21484 -55.63444 61.37972 -102.92953 15.57657 -4.38991 59.90192 12.8901 -10.45992 -71.26995 -2.85579 0.32298 10.45561 72.82412 -12.45387 10.69263 -109.22768 -11.02731 1.49641 -0.19284
0.38275 0.73067 -0.06887 180.14441 0 -8.12864 -41.34416 2.13343 44.72995 52.74986 -19.188 -37.76503 -16.61392 -2.70929 50.2449 52.28846 79.67022 -4.49892 -1.30375 -14.19931 -16.21451 -55.63386 62.04789 -102.75925 16.04657 -4.37448 59.98403 12.88179 -10.05737 -71.2701 -2.74804 0.32383 10.37606 72.71408 -12.45965 10.75609 -108.94026 -11.22026 1.45525 -1.01024
0.384 0.73068 -0.06692 180.46184 0 -8.22663 -40.7432 2.56371 42.13928 52.80547 -16.68858 -36.27185 -15.84502 -2.70439 50.06261 50.75663 79.35587 -4.52479 -1.06271 -14.20595 -16.21473 -55.63421 62.61208 -102.59395 16.46143 -4.35499 60.04807 12.87542 -9.77748 -71.25732 -2.6681 0.32324 10.31401 72.64384 -12.464 10.7827 -108.71793 -11.41989 1.42445 -1.65185
0.38525 0.73074 -0.06475 180.84233 0 -8.31021 -40.1723 3.05571 40.01725 52.98297 -14.59485 -35.11034 -15.0283 -2.5816 49.86583 49.00231 78.92797 -4.64842 -0.7778 -14.25677 -16.21533 -55.63539 63.12165 -102.46326 16.95881 -4.35638 60.11466 12.86755 -9.41051 -71.26171 -2.55077 0.32496 10.24006 72.52971 -12.46919 10.84015 -108.45499 -11.61645 1.38804 -2.39563
0.38662 0.7307 -0.06294 181.12466 0 -8.40983 -39.53693 3.44087 36.7981 52.91136 -11.58696 -33.18125 -14.28972 -2.70706 49.6984 47.70814 78.70633 -4.57507 -0.56441 -14.21129 -16.21287 -55.63087 63.80478 -102.23956 17.29038 -4.31413 60.18504 12.86198 -9.17047 -71.23513 -2.50099 0.32236 10.18336 72.49068 -12.47329 10.84911 -108.24631 -11.81569 1.35856 -3.0074
0.38822 0.73033 -0.06225 181.09858 0 -8.5663 -38.72884 3.50415 30.36337 52.12398 -5.87116 -28.99106 -13.77895 -3.4953 49.60122 47.63629 79.103 -3.9296 -0.54916 -13.91182 -16.21745 -55.63897 64.91505 -101.90502 17.27553 -4.14095 60.25762 12.86356 -9.33952 -71.11718 -2.65135 0.30717 10.18184 72.68108 -12.47362 10.70729 -108.22543 -12.03033 1.35337 -3.16672
0.38992 0.72986 -0.06193 180.96989 0 -8.74116 -37.85624 3.45817 22.91338 51.08958 0.695 -24.09009 -13.35256 -4.53781 49.53658 48.04225 79.70919 -3.09128 -0.61362 -13.5136 -16.21392 -55.63331 66.18989 -101.45678 17.07176 -3.92477 60.33264 12.86756 -9.64277 -70.96769 -2.87045 0.28761 10.1989 72.94799 -12.47277 10.51487 -108.26141 -12.24699 1.35579 -3.18346
